<svg width="291" height="292" viewBox="0 0 291 292" fill="none" xmlns="http://www.w3.org/2000/svg">
<path d="M109.061 230.782C56.9539 247.747 56.9539 200.487 36.3536 194.429M181.768 255.018V212.605C181.768 200.487 182.98 195.64 175.709 188.37C209.639 184.734 242.357 171.405 242.357 115.662C242.343 101.181 236.692 87.2735 226.604 76.8847C231.336 64.306 230.9 50.3663 225.392 38.1076C225.392 38.1076 212.063 34.4722 182.98 53.8608C158.346 47.4455 132.482 47.4455 107.849 53.8608C78.7661 34.4722 65.4364 38.1076 65.4364 38.1076C59.9286 50.3663 59.493 64.306 64.2247 76.8847C54.1359 87.2735 48.4862 101.181 48.4714 115.662C48.4714 171.405 81.1896 184.734 115.12 188.37C107.849 195.64 107.849 202.911 109.061 212.605V255.018" stroke="black" stroke-width="18.1768" stroke-linecap="round" stroke-linejoin="round"/>
</svg>
