<svg width="291" height="291" viewBox="0 0 291 291" fill="none" xmlns="http://www.w3.org/2000/svg">
<path d="M72.7071 213.274L48.4714 199.945V169.65M48.4714 121.179V90.8841M48.4714 90.8841L72.7071 77.5545M48.4714 90.8841L72.7071 104.214M121.179 49.6832L145.414 36.3535L169.65 49.6832M218.121 77.5545L242.357 90.8841M242.357 90.8841V121.179M242.357 90.8841L218.121 104.214M242.357 169.65V199.945L218.121 213.517M169.65 241.145L145.414 254.475M145.414 254.475L121.179 241.145M145.414 254.475V224.18M145.414 145.414L169.65 132.085M145.414 145.414V175.709M145.414 145.414L121.179 131.842" stroke="black" stroke-width="18.1768" stroke-linecap="round" stroke-linejoin="round"/>
</svg>
