<svg width="292" height="291" viewBox="0 0 292 291" fill="none" xmlns="http://www.w3.org/2000/svg">
<path d="M97.5715 48.5571V242.443M194.514 48.5571V242.443M49.1001 97.0286H97.5715M49.1001 193.971H97.5715M49.1001 145.5H242.986M194.514 97.0286H242.986M194.514 193.971H242.986M49.1001 72.7928C49.1001 66.3652 51.6535 60.2007 56.1986 55.6557C60.7437 51.1105 66.9081 48.5571 73.3358 48.5571H218.75C225.177 48.5571 231.342 51.1105 235.887 55.6557C240.433 60.2007 242.986 66.3652 242.986 72.7928V218.207C242.986 224.634 240.433 230.799 235.887 235.344C231.342 239.89 225.177 242.443 218.75 242.443H73.3358C66.9081 242.443 60.7437 239.89 56.1986 235.344C51.6535 230.799 49.1001 224.634 49.1001 218.207V72.7928Z" stroke="black" stroke-width="18.1768" stroke-linecap="round" stroke-linejoin="round"/>
</svg>
