<svg width="291" height="291" viewBox="0 0 291 291" fill="none" xmlns="http://www.w3.org/2000/svg">
<path d="M218.121 230.411L193.886 206.175V60.7607C193.886 47.1766 204.537 36.525 218.121 36.525C231.706 36.525 242.357 47.1766 242.357 60.7607V206.175L218.121 230.411ZM218.121 230.411H60.5893C54.1616 230.411 47.9971 227.857 43.4521 223.312C38.9069 218.767 36.3536 212.602 36.3536 206.175C36.3536 199.748 38.9069 193.583 43.4521 189.038C47.9971 184.493 54.1616 181.939 60.5893 181.939H109.061C115.488 181.939 121.652 179.386 126.198 174.841C130.743 170.295 133.296 164.131 133.296 157.704C133.296 151.276 130.743 145.112 126.198 140.566C121.652 136.021 115.488 133.468 109.061 133.468H72.7071M193.886 84.9964H242.357" stroke="black" stroke-width="18.1768" stroke-linecap="round" stroke-linejoin="round"/>
</svg>
