<svg width="292" height="291" viewBox="0 0 292 291" fill="none" xmlns="http://www.w3.org/2000/svg">
<path d="M73.3357 96.9427H73.4569M109.689 96.9427H109.811M36.9822 84.8248C36.9822 78.3972 39.5355 72.2327 44.0807 67.6876C48.6257 63.1425 54.7902 60.5891 61.2179 60.5891H230.868C237.295 60.5891 243.46 63.1425 248.005 67.6876C252.55 72.2327 255.104 78.3972 255.104 84.8248V206.003C255.104 212.431 252.55 218.595 248.005 223.14C243.46 227.686 237.295 230.239 230.868 230.239H61.2179C54.7902 230.239 48.6257 227.686 44.0807 223.14C39.5355 218.595 36.9822 212.431 36.9822 206.003V84.8248Z" stroke="black" stroke-width="18.1768" stroke-linecap="round" stroke-linejoin="round"/>
</svg>
