<svg width="291" height="291" viewBox="0 0 291 291" fill="none" xmlns="http://www.w3.org/2000/svg">
<path d="M145.5 48.4714V133.296L169.736 109.061L193.971 133.296V48.4714M48.5571 72.7071C48.5571 66.2795 51.1105 60.115 55.6557 55.57C60.2007 51.0248 66.3652 48.4714 72.7928 48.4714H218.207C224.634 48.4714 230.799 51.0248 235.344 55.57C239.89 60.115 242.443 66.2795 242.443 72.7071V218.121C242.443 224.549 239.89 230.713 235.344 235.259C230.799 239.804 224.634 242.357 218.207 242.357H72.7928C66.3652 242.357 60.2007 239.804 55.6557 235.259C51.1105 230.713 48.5571 224.549 48.5571 218.121V72.7071Z" stroke="black" stroke-width="18.1768" stroke-linecap="round" stroke-linejoin="round"/>
</svg>
