<svg width="292" height="292" viewBox="0 0 292 292" fill="none" xmlns="http://www.w3.org/2000/svg">
<path d="M206.546 109.604V85.3678C206.546 78.9401 203.993 72.7756 199.448 68.2306C194.902 63.6854 188.738 61.1321 182.311 61.1321H61.1322C54.7045 61.1321 48.54 63.6854 43.995 68.2306C39.4498 72.7756 36.8965 78.9401 36.8965 85.3678V158.075C36.8965 164.502 39.4498 170.667 43.995 175.212C48.54 179.757 54.7045 182.311 61.1322 182.311H85.3679M85.3679 133.839C85.3679 127.412 87.9213 121.247 92.4664 116.702C97.0115 112.157 103.176 109.604 109.604 109.604H230.782C237.21 109.604 243.374 112.157 247.919 116.702C252.465 121.247 255.018 127.412 255.018 133.839V206.546C255.018 212.974 252.465 219.138 247.919 223.683C243.374 228.229 237.21 230.782 230.782 230.782H109.604C103.176 230.782 97.0115 228.229 92.4664 223.683C87.9213 219.138 85.3679 212.974 85.3679 206.546V133.839ZM145.957 170.193C145.957 176.62 148.51 182.784 153.056 187.33C157.601 191.875 163.766 194.429 170.193 194.429C176.62 194.429 182.785 191.875 187.33 187.33C191.875 182.784 194.429 176.62 194.429 170.193C194.429 163.765 191.875 157.601 187.33 153.056C182.785 148.51 176.62 145.957 170.193 145.957C163.766 145.957 157.601 148.51 153.056 153.056C148.51 157.601 145.957 163.765 145.957 170.193Z" stroke="black" stroke-width="18.1768" stroke-linecap="round" stroke-linejoin="round"/>
</svg>
