<svg width="291" height="291" viewBox="0 0 291 291" fill="none" xmlns="http://www.w3.org/2000/svg">
<path d="M194.057 72.7928H230.411C233.624 72.7928 236.707 74.0696 238.979 76.342C241.251 78.6146 242.529 81.6968 242.529 84.9107V218.207C242.529 224.634 239.975 230.799 235.43 235.344C230.884 239.89 224.72 242.443 218.293 242.443M218.293 242.443C211.866 242.443 205.701 239.89 201.156 235.344C196.61 230.799 194.057 224.634 194.057 218.207V60.675C194.057 57.4611 192.78 54.3789 190.508 52.1063C188.236 49.8339 185.153 48.5571 181.939 48.5571H60.7607C57.5468 48.5571 54.4646 49.8339 52.192 52.1063C49.9196 54.3789 48.6428 57.4611 48.6428 60.675V206.089C48.6428 215.73 52.4729 224.977 59.2905 231.795C66.1082 238.612 75.3548 242.443 84.9964 242.443H218.293ZM97.1143 97.0286H145.586M97.1143 145.5H145.586M97.1143 193.971H145.586" stroke="black" stroke-width="18.1768" stroke-linecap="round" stroke-linejoin="round"/>
</svg>
