<svg width="292" height="292" viewBox="0 0 292 292" fill="none" xmlns="http://www.w3.org/2000/svg">
<path d="M85.3679 242.986H206.546M73.2501 73.3357L145.957 61.2179L218.664 73.3357M73.2501 73.3357L109.604 146.043C109.604 155.684 105.774 164.931 98.9559 171.748C92.1383 178.566 82.8916 182.396 73.2501 182.396C63.6085 182.396 54.3618 178.566 47.5442 171.748C40.7266 164.931 36.8965 155.684 36.8965 146.043L73.2501 73.3357ZM218.664 73.3357L255.018 146.043C255.018 155.684 251.187 164.931 244.37 171.748C237.552 178.566 228.305 182.396 218.664 182.396C209.023 182.396 199.776 178.566 192.959 171.748C186.141 164.931 182.311 155.684 182.311 146.043L218.664 73.3357ZM145.957 36.9822V242.986" stroke="black" stroke-width="18.1768" stroke-linecap="round" stroke-linejoin="round"/>
</svg>
