<svg width="291" height="292" viewBox="0 0 291 292" fill="none" xmlns="http://www.w3.org/2000/svg">
<path d="M109.146 61.1322H84.9108C78.4831 61.1322 72.3186 63.6856 67.7736 68.2307C63.2284 72.7758 60.675 78.9402 60.675 85.3679V230.782C60.675 237.21 63.2284 243.374 67.7736 247.919C72.3186 252.465 78.4831 255.018 84.9108 255.018H206.089C212.517 255.018 218.681 252.465 223.226 247.919C227.772 243.374 230.325 237.21 230.325 230.782V85.3679C230.325 78.9402 227.772 72.7758 223.226 68.2307C218.681 63.6856 212.517 61.1322 206.089 61.1322H181.854M109.146 61.1322C109.146 54.7045 111.7 48.54 116.245 43.995C120.79 39.4498 126.955 36.8965 133.382 36.8965H157.618C164.045 36.8965 170.21 39.4498 174.755 43.995C179.3 48.54 181.854 54.7045 181.854 61.1322M109.146 61.1322C109.146 67.5599 111.7 73.7243 116.245 78.2694C120.79 82.8146 126.955 85.3679 133.382 85.3679H157.618C164.045 85.3679 170.21 82.8146 174.755 78.2694C179.3 73.7243 181.854 67.5599 181.854 61.1322M109.146 170.193H109.268M109.146 206.546H109.268M145.5 194.429L157.618 206.546L193.971 170.193" stroke="black" stroke-width="18.1768" stroke-linecap="round" stroke-linejoin="round"/>
</svg>
