<svg width="291" height="292" viewBox="0 0 291 292" fill="none" xmlns="http://www.w3.org/2000/svg">
<path d="M218.207 97.5714C227.848 97.5714 237.095 101.402 243.913 108.219C250.73 115.037 254.561 124.284 254.561 133.925C254.561 143.566 250.73 152.813 243.913 159.631C237.095 166.448 227.848 170.279 218.207 170.279M121.264 97.5714V230.868C121.264 234.082 119.988 237.164 117.715 239.436C115.443 241.708 112.36 242.986 109.146 242.986H97.0286C93.8147 242.986 90.7325 241.708 88.46 239.436C86.1875 237.164 84.9108 234.082 84.9108 230.868V170.279M145.5 97.5708L200.321 51.8865C201.915 50.5597 203.852 49.7144 205.909 49.4496C207.965 49.1849 210.053 49.5118 211.93 50.3918C213.807 51.2718 215.395 52.6686 216.507 54.4185C217.618 56.1683 218.208 58.1989 218.207 60.2721V207.576C218.208 209.649 217.618 211.68 216.507 213.43C215.395 215.18 213.807 216.577 211.93 217.457C210.053 218.337 207.965 218.664 205.909 218.399C203.852 218.134 201.915 217.289 200.321 215.962L145.5 170.277H48.5572C45.3433 170.277 42.2611 169.001 39.9885 166.729C37.7161 164.456 36.4393 161.374 36.4393 158.159V109.689C36.4393 106.475 37.7161 103.393 39.9885 101.12C42.2611 98.8474 45.3433 97.5708 48.5572 97.5708H145.5Z" stroke="black" stroke-width="18.1768" stroke-linecap="round" stroke-linejoin="round"/>
</svg>
