<svg width="291" height="291" viewBox="0 0 291 291" fill="none" xmlns="http://www.w3.org/2000/svg">
<path d="M109.061 218.207C109.061 224.634 106.507 230.799 101.962 235.344C97.4171 239.89 91.2527 242.443 84.825 242.443C78.3973 242.443 72.2328 239.89 67.6878 235.344C63.1426 230.799 60.5893 224.634 60.5893 218.207C60.5893 211.78 63.1426 205.615 67.6878 201.07C72.2328 196.525 78.3973 193.971 84.825 193.971M109.061 218.207C109.061 211.78 106.507 205.615 101.962 201.07C97.4171 196.525 91.2527 193.971 84.825 193.971M109.061 218.207H181.768C188.195 218.207 194.359 215.654 198.905 211.108C203.45 206.563 206.004 200.399 206.004 193.971V133.382M84.825 193.971V97.0286M206.004 133.382L169.65 169.736M206.004 133.382L242.357 169.736M84.825 97.0286C78.3973 97.0286 72.2328 94.4752 67.6878 89.93C63.1426 85.385 60.5893 79.2205 60.5893 72.7928C60.5893 66.3652 63.1426 60.2007 67.6878 55.6557C72.2328 51.1105 78.3973 48.5571 84.825 48.5571C91.2527 48.5571 97.4171 51.1105 101.962 55.6557C106.507 60.2007 109.061 66.3652 109.061 72.7928C109.061 79.2205 106.507 85.385 101.962 89.93C97.4171 94.4752 91.2527 97.0286 84.825 97.0286ZM181.768 72.7928C181.768 79.2205 184.321 85.385 188.866 89.93C193.412 94.4752 199.576 97.0286 206.004 97.0286C212.431 97.0286 218.595 94.4752 223.141 89.93C227.686 85.385 230.239 79.2205 230.239 72.7928C230.239 66.3652 227.686 60.2007 223.141 55.6557C218.595 51.1105 212.431 48.5571 206.004 48.5571C199.576 48.5571 193.412 51.1105 188.866 55.6557C184.321 60.2007 181.768 66.3652 181.768 72.7928Z" stroke="black" stroke-width="18.1768" stroke-linecap="round" stroke-linejoin="round"/>
</svg>
