<svg width="291" height="292" viewBox="0 0 291 292" fill="none" xmlns="http://www.w3.org/2000/svg">
<path d="M230.411 36.8965L169.821 97.4858M230.411 36.8965H181.939M230.411 36.8965V85.3679M133.468 194.429V267.136M97.1142 230.782H169.821M84.9963 133.839C84.9963 146.695 90.1032 159.024 99.1933 168.113C108.283 177.204 120.612 182.311 133.468 182.311C146.324 182.311 158.652 177.204 167.742 168.113C176.833 159.024 181.939 146.695 181.939 133.839C181.939 120.984 176.833 108.655 167.742 99.5648C158.652 90.4747 146.324 85.3679 133.468 85.3679C120.612 85.3679 108.283 90.4747 99.1933 99.5648C90.1032 108.655 84.9963 120.984 84.9963 133.839Z" stroke="black" stroke-width="18.1768" stroke-linecap="round" stroke-linejoin="round"/>
</svg>
