<svg width="291" height="291" viewBox="0 0 291 291" fill="none" xmlns="http://www.w3.org/2000/svg">
<path d="M109.146 121.264H109.268M181.854 121.264H181.975M115.205 181.854C119.154 185.884 123.867 189.086 129.069 191.272C134.272 193.458 139.858 194.583 145.5 194.583C151.142 194.583 156.728 193.458 161.931 191.272C167.133 189.086 171.845 185.884 175.795 181.854M36.4393 145.5C36.4393 159.822 39.2602 174.004 44.741 187.236C50.2219 200.468 58.2552 212.49 68.3825 222.618C78.5097 232.745 90.5325 240.778 103.764 246.259C116.996 251.74 131.178 254.561 145.5 254.561C159.822 254.561 174.004 251.74 187.236 246.259C200.468 240.778 212.49 232.745 222.618 222.618C232.745 212.49 240.778 200.468 246.259 187.236C251.74 174.004 254.561 159.822 254.561 145.5C254.561 131.178 251.74 116.996 246.259 103.764C240.778 90.5325 232.745 78.5097 222.618 68.3825C212.49 58.2552 200.468 50.2219 187.236 44.741C174.004 39.2602 159.822 36.4393 145.5 36.4393C131.178 36.4393 116.996 39.2602 103.764 44.741C90.5325 50.2219 78.5097 58.2552 68.3825 68.3825C58.2552 78.5097 50.2219 90.5325 44.741 103.764C39.2602 116.996 36.4393 131.178 36.4393 145.5Z" stroke="black" stroke-width="18.1768" stroke-linecap="round" stroke-linejoin="round"/>
</svg>
