<svg width="292" height="292" viewBox="0 0 292 292" fill="none" xmlns="http://www.w3.org/2000/svg">
<path d="M73.3357 145.957H121.807M97.5714 121.721V170.193M182.396 133.839V133.96M218.75 158.075V158.196M24.8643 97.4857C24.8643 91.058 27.4176 84.8936 31.9628 80.3485C36.5078 75.8034 42.6723 73.25 49.1 73.25H242.986C249.413 73.25 255.577 75.8034 260.123 80.3485C264.668 84.8936 267.221 91.058 267.221 97.4857V194.429C267.221 200.856 264.668 207.02 260.123 211.566C255.577 216.111 249.413 218.664 242.986 218.664H49.1C42.6723 218.664 36.5078 216.111 31.9628 211.566C27.4176 207.02 24.8643 200.856 24.8643 194.429V97.4857Z" stroke="black" stroke-width="18.1768" stroke-linecap="round" stroke-linejoin="round"/>
</svg>
