<svg width="291" height="292" viewBox="0 0 291 292" fill="none" xmlns="http://www.w3.org/2000/svg">
<path d="M48.4714 85.4536H84.825C88.0389 85.4536 91.1211 84.1769 93.3937 81.9044C95.6661 79.6318 96.9429 76.5496 96.9429 73.3357V61.2179C96.9429 54.7902 99.4962 48.6257 104.041 44.0807C108.586 39.5355 114.751 36.9822 121.179 36.9822C127.606 36.9822 133.77 39.5355 138.316 44.0807C142.861 48.6257 145.414 54.7902 145.414 61.2179V73.3357C145.414 76.5496 146.692 79.6318 148.964 81.9044C151.236 84.1769 154.318 85.4536 157.532 85.4536H193.886C197.099 85.4536 200.182 86.7303 202.454 89.0028C204.726 91.2754 206.004 94.3576 206.004 97.5715V133.925C206.004 137.139 207.281 140.221 209.553 142.494C211.825 144.766 214.908 146.043 218.121 146.043H230.239C236.667 146.043 242.831 148.596 247.376 153.142C251.922 157.687 254.475 163.851 254.475 170.279C254.475 176.706 251.922 182.87 247.376 187.416C242.831 191.961 236.667 194.514 230.239 194.514H218.121C214.908 194.514 211.825 195.792 209.553 198.064C207.281 200.336 206.004 203.419 206.004 206.632V242.986C206.004 246.199 204.726 249.282 202.454 251.554C200.182 253.826 197.099 255.104 193.886 255.104H157.532C154.318 255.104 151.236 253.826 148.964 251.554C146.692 249.282 145.414 246.199 145.414 242.986V230.868C145.414 224.441 142.861 218.276 138.316 213.731C133.77 209.185 127.606 206.632 121.179 206.632C114.751 206.632 108.586 209.185 104.041 213.731C99.4962 218.276 96.9429 224.441 96.9429 230.868V242.986C96.9429 246.199 95.6661 249.282 93.3937 251.554C91.1211 253.826 88.0389 255.104 84.825 255.104H48.4714C45.2575 255.104 42.1754 253.826 39.9028 251.554C37.6303 249.282 36.3536 246.199 36.3536 242.986V206.632C36.3536 203.419 37.6303 200.336 39.9028 198.064C42.1754 195.792 45.2575 194.514 48.4714 194.514H60.5893C67.017 194.514 73.1814 191.961 77.7265 187.416C82.2716 182.87 84.825 176.706 84.825 170.279C84.825 163.851 82.2716 157.687 77.7265 153.142C73.1814 148.596 67.017 146.043 60.5893 146.043H48.4714C45.2575 146.043 42.1754 144.766 39.9028 142.494C37.6303 140.221 36.3536 137.139 36.3536 133.925V97.5715C36.3536 94.3576 37.6303 91.2754 39.9028 89.0028C42.1754 86.7303 45.2575 85.4536 48.4714 85.4536Z" stroke="black" stroke-width="18.1768" stroke-linecap="round" stroke-linejoin="round"/>
</svg>
