<svg width="292" height="291" viewBox="0 0 292 291" fill="none" xmlns="http://www.w3.org/2000/svg">
<path d="M49.0143 242.529H97.4857L115.662 206.175M206.546 242.529L194.429 181.939H133.839L145.957 97.1143M145.957 97.1143L49.0143 121.35M145.957 97.1143L242.9 133.468M133.839 48.6429C133.839 51.8567 135.117 54.9389 137.389 57.2115C139.661 59.484 142.743 60.7607 145.957 60.7607C149.171 60.7607 152.254 59.484 154.526 57.2115C156.798 54.9389 158.075 51.8567 158.075 48.6429C158.075 45.429 156.798 42.3468 154.526 40.0742C152.254 37.8017 149.171 36.525 145.957 36.525C142.743 36.525 139.661 37.8017 137.389 40.0742C135.117 42.3468 133.839 45.429 133.839 48.6429Z" stroke="black" stroke-width="18.1768" stroke-linecap="round" stroke-linejoin="round"/>
</svg>
