<svg width="292" height="291" viewBox="0 0 292 291" fill="none" xmlns="http://www.w3.org/2000/svg">
<path d="M73.25 145.414C66.8223 145.414 60.6578 142.861 56.1128 138.316C51.5676 133.77 49.0143 127.606 49.0143 121.179C49.0143 114.751 51.5676 108.586 56.1128 104.041C60.6578 99.4962 66.8223 96.9429 73.25 96.9429M73.25 145.414C79.6777 145.414 85.8421 142.861 90.3872 138.316C94.9324 133.77 97.4857 127.606 97.4857 121.179C97.4857 114.751 94.9324 108.586 90.3872 104.041C85.8421 99.4962 79.6777 96.9429 73.25 96.9429M73.25 145.414V242.357M73.25 96.9429V48.4714M145.957 218.121C139.53 218.121 133.365 215.568 128.82 211.023C124.275 206.477 121.721 200.313 121.721 193.886C121.721 187.458 124.275 181.294 128.82 176.749C133.365 172.203 139.53 169.65 145.957 169.65M145.957 218.121C152.384 218.121 158.549 215.568 163.094 211.023C167.64 206.477 170.193 200.313 170.193 193.886C170.193 187.458 167.64 181.294 163.094 176.749C158.549 172.203 152.384 169.65 145.957 169.65M145.957 218.121V242.357M145.957 169.65V48.4714M218.664 109.061C212.237 109.061 206.073 106.507 201.527 101.962C196.982 97.4172 194.429 91.2527 194.429 84.825C194.429 78.3973 196.982 72.2329 201.527 67.6878C206.073 63.1426 212.237 60.5893 218.664 60.5893M218.664 109.061C225.092 109.061 231.256 106.507 235.801 101.962C240.347 97.4172 242.9 91.2527 242.9 84.825C242.9 78.3973 240.347 72.2329 235.801 67.6878C231.256 63.1426 225.092 60.5893 218.664 60.5893M218.664 109.061V242.357M218.664 60.5893V48.4714" stroke="black" stroke-width="18.1768" stroke-linecap="round" stroke-linejoin="round"/>
</svg>
